<?xml version="1.0" encoding="UTF-8"?>
<svg width="114px" height="114px" viewBox="0 0 114 114" version="1.1" xmlns="http://www.w3.org/2000/svg" xmlns:xlink="http://www.w3.org/1999/xlink">
    <!-- Generator: sketchtool 59 (101010) - https://sketch.com -->
    <title>EBF6CE8E-5DEB-4505-BF57-BB0B10DDC83B</title>
    <desc>Created with sketchtool.</desc>
    <g id="Page-1" stroke="none" stroke-width="1" fill="none" fill-rule="evenodd">
        <g id="Desktop-Home" transform="translate(-456.000000, -296.000000)">
            <rect fill="#0F0F0F" x="0" y="0" width="1024" height="768"></rect>
            <g id="worldwide-copy" transform="translate(456.000000, 296.000000)" fill="#FFFFFF" fill-rule="nonzero">
                <path d="M57.0201813,6.09199056e-07 C34.213057,-0.00332378061 13.6004505,13.5942615 4.62363286,34.5647956 L3.91318085,34.8003956 L4.18862348,35.6268955 C-7.63071458,64.7838158 6.41899639,98.0036479 35.5698493,109.825446 C42.3782687,112.586621 49.6563651,114.00402 57.0033223,114.000001 C88.4769164,114.004733 113.995251,88.4886869 114,57.008542 C114.004749,25.5283971 88.4940128,0.00451371813 57.0201813,6.09199056e-07 Z M101.720958,85.7384374 L98.7946172,82.8133879 L98.7946172,75.9999966 C98.7979416,75.705964 98.7328801,75.4152641 98.6046568,75.1506891 L91.1962,60.3515915 L91.1962,53.1999926 C91.1962,52.5649177 90.8792035,51.9716428 90.3508761,51.6191929 L84.6520631,47.8191935 C84.2054186,47.5208936 83.6533461,47.4256561 83.1323797,47.5569935 L76.1532334,49.3011933 L64.4307752,44.2699941 L62.8180111,32.9687959 L67.2877801,28.4999966 L76.8826815,28.4999966 L80.1120088,33.3544958 C80.4035981,33.7910208 80.8630649,34.0876582 81.3809445,34.1733957 L92.7785704,36.0733954 C93.0839318,36.1246954 93.3968916,36.0997579 93.6903805,36.0011954 L104.187594,32.501396 C112.992022,49.4007058 112.050294,69.72619 101.720958,85.7384374 Z M93.8860397,18.7225982 L90.7972831,20.7821979 L82.1863767,19.0588981 L76.5996404,17.1987984 C76.2577116,17.082661 75.8896633,17.067936 75.5396612,17.1569985 L68.4769324,18.9220982 L65.3805773,17.8903983 L67.6752993,13.2999991 L74.0997611,13.2999991 C74.3944373,13.3002366 74.6850767,13.2320741 74.9488843,13.1004991 L81.5215152,9.81349964 C86.0477974,12.1766243 90.21173,15.1767238 93.8860397,18.7225982 Z M36.1969562,8.04269992 L40.7560066,11.0826994 C40.9801599,11.2318494 41.2332822,11.3315994 41.4987519,11.3752994 L50.7042344,12.9104991 L49.8057215,15.5989987 L45.0092206,17.2006984 C44.5796726,17.3436734 44.215186,17.6353234 43.9815347,18.0233983 L38.5258711,27.1167968 L29.7629964,32.375996 L16.845687,34.2208957 C15.9094196,34.3531832 15.2132146,35.1542705 15.2120273,36.0999954 L15.2120273,41.7999945 C15.2120273,42.3039694 15.4124356,42.7870443 15.7686114,43.1432943 L19.011236,46.3865937 L19.011236,49.6507932 L11.108882,44.3801941 L8.24237909,35.7788954 C13.6961431,23.3148975 23.6920984,13.3968991 36.1969562,8.04269992 Z M30.7887827,70.3379899 L22.2025712,68.6184902 L19.011236,62.2515912 L19.011236,57.7865919 L26.0891616,50.707193 L28.708716,55.9492922 C29.0304615,56.5933921 29.6889118,57.0002295 30.4088619,56.999992 L42.630916,56.999992 L47.7769441,65.5784906 C48.1202976,66.1501531 48.7381439,66.499753 49.404905,66.4999905 L54.685805,66.4999905 L53.356082,73.1632894 L46.1641801,80.3566883 C45.8072919,80.7127007 45.6064087,81.1957756 45.6056964,81.699988 L45.6056964,86.4499873 L38.7671208,91.5799864 C38.2888955,91.9388489 38.0072791,92.5019613 38.0072791,93.0999862 L38.0072791,99.9627851 L35.6441714,99.1799852 L32.3084662,90.8351866 L32.3084662,72.1999896 C32.3087036,71.2970147 31.673286,70.5184898 30.7887827,70.3379899 Z M25.0785721,99.5459727 C7.1679154,86.1060873 -0.406519366,62.8842911 6.1338183,41.4655945 L7.71238948,46.2003938 C7.84536179,46.6010562 8.10798208,46.9461436 8.45893398,47.1807936 L17.9284615,53.4944926 L15.7686114,55.6566922 C15.4124356,56.0129422 15.2120273,56.4960171 15.2120273,56.999992 L15.2120273,62.6999911 C15.2117899,62.9947286 15.2799382,63.2854285 15.4114858,63.549291 L19.2106944,71.1492897 C19.4737896,71.6741647 19.9645999,72.0479896 20.5404174,72.1619896 L28.5187556,73.7560893 L28.5187556,91.1999865 C28.5185181,91.4412865 28.5643461,91.6806864 28.6536275,91.9048864 L32.4528361,101.404885 C32.6608428,101.923822 33.086829,102.32496 33.6172935,102.501185 L39.3161065,104.401184 C39.5065418,104.465784 39.7060003,104.499034 39.9068834,104.499984 C40.9559399,104.499984 41.8064878,103.64926 41.8064878,102.599985 L41.8064878,94.0499861 L48.6450633,88.9199869 C49.1232887,88.5611244 49.404905,87.998012 49.404905,87.3999871 L49.404905,82.4865879 L56.4467382,75.4432891 C56.7114956,75.1780016 56.891958,74.8400391 56.9653302,74.4723892 L58.8649345,64.9723907 C59.0705667,63.9433034 58.4033307,62.9424786 57.3744575,62.7368036 C57.2521705,62.7123411 57.1279838,62.6999911 57.0033223,62.6999911 L50.4800811,62.6999911 L45.334053,54.1214925 C44.9906995,53.5498301 44.3728532,53.2002301 43.7060921,53.1999926 L31.5828173,53.1999926 L28.3192971,46.6506937 C28.0459915,46.1039688 27.5264498,45.7220688 26.9230879,45.6246939 C26.3199636,45.5204314 25.7042543,45.7194563 25.276131,46.1566938 L22.8104446,48.6133934 L22.8104446,45.5999939 C22.8104446,45.0960189 22.6100363,44.612944 22.2538605,44.2566941 L19.011236,41.0133946 L19.011236,37.7472951 L30.6786057,36.0809954 C30.929116,36.0446579 31.1701283,35.9586829 31.3871581,35.8282954 L40.8851797,30.1282964 C41.1515992,29.9682214 41.3748027,29.7449714 41.5348443,29.4784965 L46.8727325,20.5807979 L51.9047843,18.9011982 C52.4730034,18.7147607 52.9189356,18.2689733 53.1053342,17.7003984 L55.0049385,12.0003993 C55.334045,11.0040869 54.7933701,9.92939962 53.7972651,9.60022467 C53.7053717,9.56982468 53.6111039,9.54654968 53.5156488,9.53039968 L42.520739,7.69689998 L40.5888414,6.40870019 C52.5428139,2.51702581 65.490042,2.99867574 77.1220316,7.76719997 L73.6514545,9.49999969 L66.5013439,9.49999969 C65.7778321,9.49596219 65.1151076,9.90351212 64.7917,10.5506995 L60.9924914,18.1506983 C60.5244763,19.0897731 60.9060594,20.230723 61.8449388,20.6988354 C61.9249596,20.7387354 62.0075924,20.7729354 62.0923623,20.8011979 L67.7911752,22.7011976 C68.133104,22.817335 68.5011523,22.83206 68.8511544,22.7429976 L75.9138833,20.9778978 L81.0884054,22.7011976 C81.16249,22.7277976 81.2387116,22.7482226 81.3163579,22.7619975 L90.8143795,24.6619972 C91.3082766,24.7626972 91.8221196,24.6615222 92.2409824,24.3807973 L96.5644818,21.4965978 C98.6922761,23.8670849 100.604465,26.4225845 102.278492,29.1326965 L92.9324383,32.248696 L82.8132461,30.5614963 L79.4699425,25.5454971 C79.1194655,25.0199097 78.5305882,24.7030847 77.8989698,24.6999972 L66.5013439,24.6999972 C65.9974738,24.6999972 65.5144994,24.9004472 65.1583236,25.2566971 L59.4595107,30.9566962 C59.0363738,31.3796837 58.8371528,31.9774711 58.9219226,32.569796 L60.821527,45.8697938 C60.9172195,46.5274312 61.3493795,47.0872186 61.9612896,47.3460936 L75.2585198,53.0460927 C75.6393904,53.2111551 76.0644269,53.2451176 76.4666681,53.1429926 L83.2501551,51.4462929 L87.3969914,54.2164925 L87.3969914,60.7999914 C87.393667,61.0940164 87.4587285,61.3847163 87.5869518,61.6492913 L94.9954086,76.4483889 L94.9954086,83.5999877 C94.9954086,84.1039627 95.1958169,84.5870376 95.5519927,84.9432875 L99.5259649,88.9199869 C81.9016735,112.416571 48.5702664,117.17417 25.0785721,99.5459727 Z" id="Shape"></path>
            </g>
        </g>
    </g>
</svg>